<svg version="1.0" xmlns="http://www.w3.org/2000/svg" viewBox="0 0 71 54.1" xml:space="preserve"><path fill="#5865F2" d="M60.1 4.5C55.6 2.4 50.7.9 45.7 0c-.1 0-.2 0-.2.1-.6 1.1-1.3 2.6-1.8 3.7-5.5-.8-11-.8-16.3 0-.5-1.2-1.2-2.6-1.8-3.7-.1-.1-.2-.1-.3-.1-5.1.9-9.9 2.4-14.5 4.5 0 0-.1 0-.1.1C1.6 18.3-.9 31.7.3 45c0 .1 0 .1.1.2 6.1 4.5 12 7.2 17.7 9 .1 0 .2 0 .2-.1 1.4-1.9 2.6-3.8 3.6-5.9.1-.1 0-.3-.1-.3-1.9-.7-3.8-1.6-5.5-2.6-.1-.1-.2-.3 0-.4.4-.3.7-.6 1.1-.9.1-.1.2-.1.2 0 11.6 5.3 24.2 5.3 35.7 0h.2c.4.3.7.6 1.1.9.1.1.1.3 0 .4-1.8 1-3.6 1.9-5.5 2.6-.1 0-.2.2-.1.3 1.1 2.1 2.3 4 3.6 5.9.1.1.2.1.2.1 5.8-1.8 11.7-4.5 17.8-9 .1 0 .1-.1.1-.2 1.5-15.3-2.5-28.6-10.6-40.5.1 0 0 0 0 0zM23.7 36.9c-3.5 0-6.4-3.2-6.4-7.2s2.8-7.2 6.4-7.2c3.6 0 6.4 3.2 6.4 7.2s-2.8 7.2-6.4 7.2zm23.6 0c-3.5 0-6.4-3.2-6.4-7.2s2.8-7.2 6.4-7.2c3.6 0 6.4 3.2 6.4 7.2s-2.8 7.2-6.4 7.2z"/></svg>