<svg version="1.1" id="Layer_1" xmlns="http://www.w3.org/2000/svg" x="0" y="0" viewBox="0 0 88.3 88.5" style="enable-background:new 0 0 88.3 88.5" xml:space="preserve"><style>.st0{fill:#3c628d}</style><path class="st0" d="M44.1 0C20.8 0 1.8 17.9 0 40.7l23.7 9.8c2-1.4 4.4-2.2 7-2.2h.7L42 33.1v-.2c0-9.2 7.5-16.7 16.7-16.7s16.7 7.5 16.7 16.7-7.5 16.7-16.7 16.7h-.4l-15 10.7v.6c0 6.9-5.6 12.5-12.5 12.5-6.1 0-11.1-4.3-12.3-10.1l-17-7c5.2 18.6 22.3 32.2 42.6 32.2 24.4 0 44.2-19.8 44.2-44.2C88.3 19.8 68.5 0 44.1 0"/><path class="st0" d="m27.7 67.1-5.4-2.2c1 2 2.6 3.7 4.8 4.6 4.8 2 10.3-.3 12.3-5.1 1-2.3 1-4.9 0-7.2s-2.8-4.1-5.1-5.1-4.8-.9-6.9-.1l5.6 2.3c3.5 1.5 5.2 5.5 3.7 9-1.4 3.6-5.5 5.3-9 3.8M69.8 32.8c0-6.1-5-11.1-11.1-11.1s-11.1 5-11.1 11.1 5 11.1 11.1 11.1S69.8 39 69.8 32.8m-19.5 0c0-4.6 3.7-8.3 8.4-8.3s8.4 3.7 8.4 8.3-3.7 8.3-8.4 8.3-8.4-3.7-8.4-8.3"/></svg>